<?xml version="1.0" encoding="iso-8859-1"?>
<!-- Generator: Adobe Illustrator 16.0.0, SVG Export Plug-In . SVG Version: 6.00 Build 0)  -->
<!DOCTYPE svg PUBLIC "-//W3C//DTD SVG 1.1//EN" "http://www.w3.org/Graphics/SVG/1.1/DTD/svg11.dtd">
<svg version="1.1" id="Warstwa_1" xmlns="http://www.w3.org/2000/svg" xmlns:xlink="http://www.w3.org/1999/xlink" x="0px" y="0px"
	 width="128px" height="128px" viewBox="0 0 128 128" style="enable-background:new 0 0 128 128;" xml:space="preserve">
<g>
	<g>
		<path style="fill:#E3E3E3;" d="M112.825,44.513c-0.01-0.052-0.025-0.1-0.053-0.146c-2.563-6.391-6.426-12.377-11.594-17.545
			s-11.153-9.029-17.543-11.592c-0.047-0.027-0.095-0.045-0.148-0.057c-12.478-4.959-26.48-4.96-38.959-0.004
			c-0.063,0.01-0.121,0.031-0.176,0.065c-6.384,2.562-12.367,6.423-17.532,11.587c-5.164,5.165-9.024,11.146-11.587,17.533
			c-0.033,0.053-0.054,0.109-0.063,0.171c-4.952,12.468-4.956,26.458-0.009,38.929c0.009,0.078,0.035,0.149,0.08,0.213
			c2.562,6.379,6.42,12.354,11.579,17.512c5.161,5.16,11.138,9.02,17.515,11.582c0.064,0.041,0.133,0.068,0.209,0.077
			c12.47,4.948,26.46,4.946,38.928-0.005c0.064-0.01,0.121-0.033,0.176-0.066c6.386-2.562,12.367-6.423,17.531-11.588
			c5.166-5.164,9.026-11.146,11.588-17.532c0.033-0.052,0.054-0.108,0.063-0.169C117.788,70.998,117.786,56.992,112.825,44.513z
			 M115.589,63.522l-7.285,0.001h-3.432l7.46-17.616C114.444,51.577,115.534,57.544,115.589,63.522z M64.478,12.412
			c5.979,0.054,11.945,1.144,17.615,3.257l-17.615,7.458V12.412z M63.522,12.411l-0.002,10.716l-17.611-7.46
			C51.579,13.556,57.546,12.466,63.522,12.411z M15.669,45.909l7.459,17.614H12.411C12.467,57.546,13.556,51.579,15.669,45.909z
			 M12.411,64.478h10.713L15.667,82.09C13.556,76.419,12.467,70.454,12.411,64.478z M63.521,115.589
			c-5.978-0.055-11.942-1.145-17.613-3.256l17.613-7.46V115.589z M64.478,115.589v-10.716l17.613,7.46
			C76.42,114.444,70.456,115.534,64.478,115.589z M111.431,84.345c-2.449,5.733-5.979,11.109-10.598,15.814l-5.626-5.625
			l-0.674,0.675l5.624,5.624c-4.703,4.619-10.08,8.15-15.813,10.6l7.304-16.224h-1.049l-7.442,16.539l-18.972-8.036
			c-0.023-0.009-0.05-0.005-0.077-0.011c-0.036-0.008-0.069-0.017-0.107-0.017c-0.04,0-0.077,0.009-0.116,0.019
			c-0.022,0.006-0.049,0.001-0.07,0.011l-18.971,8.034l-7.441-16.539h-1.049l7.303,16.222c-5.734-2.449-11.11-5.979-15.814-10.598
			l5.623-5.624l-0.673-0.677l-5.624,5.625c-4.62-4.703-8.148-10.079-10.598-15.812l16.222,7.303v-1.047l-16.54-7.443l8.033-18.971
			c0.01-0.021,0.004-0.043,0.01-0.066c0.012-0.041,0.021-0.081,0.021-0.123c0-0.035-0.006-0.068-0.016-0.103
			c-0.008-0.026-0.002-0.054-0.014-0.08l-8.033-18.97l16.538-7.443v-1.046l-16.222,7.302c2.449-5.734,5.979-11.111,10.598-15.814
			l5.624,5.623l0.677-0.674l-5.625-5.626c4.704-4.618,10.08-8.146,15.814-10.599l-7.303,16.225h1.047l7.444-16.538l18.97,8.034
			c0.021,0.009,0.046,0.004,0.068,0.009c0.037,0.012,0.076,0.02,0.116,0.02s0.075-0.008,0.113-0.018
			c0.022-0.007,0.048-0.002,0.071-0.011l18.97-8.033l7.444,16.537h1.049l-7.306-16.225c5.733,2.45,11.112,5.98,15.815,10.6
			l-5.624,5.625l0.674,0.676l5.626-5.625c4.62,4.705,8.15,10.082,10.601,15.816l-16.229-7.306l0.002,1.048l16.537,7.444
			l-8.032,18.969c-0.01,0.026-0.006,0.052-0.012,0.077c-0.008,0.035-0.016,0.07-0.016,0.105c0,0.042,0.008,0.08,0.018,0.123
			c0.006,0.021,0.002,0.045,0.01,0.065l8.035,18.972l-16.54,7.443v1.047L111.431,84.345z M112.332,82.093l-7.46-17.616h5.439
			l5.277,0.001C115.534,70.456,114.444,76.423,112.332,82.093z"/>
	</g>
	<path style="fill:none;stroke:#000000;stroke-miterlimit:10;" d="M45.975,19.478"/>
	<path style="fill:none;stroke:#000000;stroke-miterlimit:10;" d="M62.219,15.476"/>
	<rect x="54.166" y="44.389" style="fill:none;stroke:#000000;stroke-miterlimit:10;" width="24.127" height="40.83"/>
	<rect x="57.083" y="44.389" width="3.313" height="40.83"/>
	<path d="M68.086,81.435c0,0.553-0.447,1-1,1h-4.363c-0.553,0-1-0.447-1-1v-4.363c0-0.553,0.447-1,1-1h4.363c0.553,0,1,0.447,1,1
		V81.435z"/>
	<line style="fill:none;stroke:#FFFFFF;stroke-miterlimit:10;" x1="61.723" y1="80.313" x2="68.086" y2="80.313"/>
	<line style="fill:none;stroke:#FFFFFF;stroke-miterlimit:10;" x1="64.188" y1="76.071" x2="64.188" y2="80.313"/>
	<line style="fill:none;stroke:#000000;stroke-miterlimit:10;" x1="66.471" y1="72.878" x2="66.471" y2="64.878"/>
	<line style="fill:none;stroke:#000000;stroke-miterlimit:10;" x1="63.625" y1="72.878" x2="63.625" y2="64.878"/>
	<line style="fill:none;stroke:#000000;stroke-miterlimit:10;" x1="63.625" y1="63.527" x2="63.625" y2="59.465"/>
	<line style="fill:none;stroke:#000000;stroke-miterlimit:10;" x1="63.625" y1="58.34" x2="63.625" y2="56.309"/>
</g>
</svg>
