<?xml version="1.0" encoding="iso-8859-1"?>
<!-- Generator: Adobe Illustrator 16.0.0, SVG Export Plug-In . SVG Version: 6.00 Build 0)  -->
<!DOCTYPE svg PUBLIC "-//W3C//DTD SVG 1.1//EN" "http://www.w3.org/Graphics/SVG/1.1/DTD/svg11.dtd">
<svg version="1.1" id="Warstwa_1" xmlns="http://www.w3.org/2000/svg" xmlns:xlink="http://www.w3.org/1999/xlink" x="0px" y="0px"
	 width="128px" height="128px" viewBox="0 0 128 128" style="enable-background:new 0 0 128 128;" xml:space="preserve">
<g>
	<line style="fill:none;stroke:#000000;stroke-miterlimit:10;" x1="46" y1="78.049" x2="46" y2="69.924"/>
	<line style="fill:none;stroke:#000000;stroke-miterlimit:10;" x1="46" y1="68.532" x2="46" y2="60.407"/>
	<g>
		<path style="fill:none;stroke:#000000;stroke-width:0.5;stroke-miterlimit:10;" d="M74.784,67.643
			c-0.001-0.003-0.002-0.006-0.003-0.008c-0.143-0.354-0.355-0.686-0.643-0.972c-0.285-0.285-0.617-0.5-0.971-0.643
			c-0.004-0.001-0.006-0.001-0.009-0.002c-0.69-0.274-1.466-0.274-2.157,0c-0.004,0-0.007,0.001-0.01,0.002
			c-0.354,0.143-0.685,0.357-0.971,0.643c-0.285,0.286-0.5,0.617-0.641,0.972c-0.002,0.002-0.004,0.005-0.005,0.01
			c-0.274,0.689-0.274,1.464,0,2.154c0,0.006,0.001,0.009,0.005,0.012c0.142,0.354,0.355,0.685,0.641,0.97
			c0.285,0.286,0.616,0.499,0.97,0.642c0.004,0.003,0.007,0.003,0.013,0.004c0.689,0.274,1.465,0.274,2.154,0
			c0.004-0.001,0.007-0.003,0.01-0.004c0.354-0.141,0.686-0.355,0.971-0.642c0.287-0.285,0.5-0.616,0.643-0.97
			c0.001-0.004,0.003-0.006,0.003-0.01C75.059,69.11,75.059,68.334,74.784,67.643z M74.937,68.695h-0.403h-0.189l0.413-0.976
			C74.873,68.034,74.934,68.364,74.937,68.695z M72.107,65.866c0.33,0.002,0.661,0.062,0.975,0.179l-0.975,0.414V65.866z
			 M72.054,65.866v0.593l-0.976-0.414C71.393,65.929,71.723,65.868,72.054,65.866z M69.404,67.72l0.412,0.976h-0.594
			C69.227,68.364,69.287,68.034,69.404,67.72z M69.223,68.748h0.594l-0.412,0.976C69.287,69.41,69.227,69.079,69.223,68.748z
			 M72.054,71.579c-0.331-0.004-0.661-0.063-0.976-0.181l0.976-0.413V71.579z M72.107,71.579v-0.594l0.975,0.413
			C72.769,71.516,72.438,71.575,72.107,71.579z M74.707,69.849c-0.137,0.316-0.332,0.616-0.588,0.876l-0.311-0.312l-0.038,0.036
			l0.312,0.312c-0.26,0.256-0.559,0.452-0.875,0.587l0.404-0.899h-0.059l-0.412,0.917L72.09,70.92c0,0-0.002,0-0.004,0
			s-0.004-0.001-0.006-0.001s-0.004,0.001-0.007,0.001c-0.001,0-0.003,0-0.003,0l-1.051,0.446l-0.412-0.917H70.55l0.403,0.899
			c-0.316-0.135-0.615-0.331-0.875-0.587l0.311-0.312l-0.036-0.036l-0.312,0.312c-0.255-0.26-0.45-0.56-0.587-0.876l0.899,0.404
			v-0.058l-0.917-0.412l0.446-1.052c0,0,0-0.001,0-0.003s0.001-0.005,0.001-0.006c0-0.003-0.001-0.005-0.001-0.007s0-0.003,0-0.003
			l-0.446-1.051l0.917-0.413V67.19l-0.899,0.404c0.137-0.316,0.332-0.615,0.587-0.875l0.312,0.312l0.036-0.037l-0.311-0.311
			c0.26-0.257,0.559-0.453,0.875-0.589l-0.403,0.899h0.058l0.412-0.916l1.051,0.444c0,0.001,0.002,0,0.003,0.001
			c0.003,0.001,0.005,0.001,0.007,0.001s0.004,0,0.006-0.001s0.004,0,0.004-0.001l1.051-0.444l0.412,0.916h0.059l-0.404-0.899
			c0.316,0.136,0.615,0.332,0.875,0.589l-0.312,0.311l0.038,0.037l0.311-0.312c0.256,0.26,0.451,0.559,0.588,0.875l-0.898-0.404
			v0.059l0.915,0.413l-0.444,1.051c0,0,0,0.001,0,0.003c-0.002,0.002-0.002,0.004-0.002,0.007c0,0.001,0,0.004,0.002,0.006
			c0,0.002,0,0.003,0,0.003l0.444,1.052l-0.915,0.412v0.058L74.707,69.849z M74.757,69.724l-0.413-0.976h0.301h0.292
			C74.934,69.079,74.873,69.41,74.757,69.724z"/>
		<polygon style="fill:none;stroke:#000000;stroke-width:0.5;stroke-miterlimit:10;" points="73.626,70.268 71.604,70.268 
			71.658,70.321 73.678,70.321 73.678,69.55 73.626,69.604 		"/>
		<polygon style="fill:none;stroke:#000000;stroke-width:0.5;stroke-miterlimit:10;" points="73.626,67.177 73.626,69.198 
			73.678,69.146 73.678,67.123 72.906,67.123 72.96,67.177 		"/>
		<polygon style="fill:none;stroke:#000000;stroke-width:0.5;stroke-miterlimit:10;" points="70.534,70.268 70.534,68.248 
			70.48,68.301 70.48,70.321 71.253,70.321 71.2,70.268 		"/>
		<polygon style="fill:none;stroke:#000000;stroke-width:0.5;stroke-miterlimit:10;" points="70.534,67.177 72.556,67.177 
			72.502,67.123 70.48,67.123 70.48,67.896 70.534,67.843 		"/>
		<polygon style="fill:none;stroke:#000000;stroke-width:0.5;stroke-miterlimit:10;" points="73.509,67.891 72.222,66.603 
			72.179,66.621 72.179,66.635 73.509,67.964 		"/>
		<polygon style="fill:none;stroke:#000000;stroke-width:0.5;stroke-miterlimit:10;" points="71.982,66.635 71.982,66.621 
			71.939,66.603 71.535,67.007 71.609,67.007 		"/>
		<polygon style="fill:none;stroke:#000000;stroke-width:0.5;stroke-miterlimit:10;" points="74.181,68.623 74.199,68.579 
			73.795,68.176 73.795,68.251 74.168,68.623 		"/>
		<polygon style="fill:none;stroke:#000000;stroke-width:0.5;stroke-miterlimit:10;" points="74.181,68.82 74.168,68.82 
			72.836,70.152 72.91,70.152 74.199,68.863 		"/>
		<polygon style="fill:none;stroke:#000000;stroke-width:0.5;stroke-miterlimit:10;" points="70.65,69.554 71.939,70.841 
			71.982,70.822 71.982,70.811 70.65,69.479 		"/>
		<polygon style="fill:none;stroke:#000000;stroke-width:0.5;stroke-miterlimit:10;" points="72.179,70.811 72.179,70.822 
			72.222,70.841 72.625,70.438 72.551,70.438 		"/>
		<polygon style="fill:none;stroke:#000000;stroke-width:0.5;stroke-miterlimit:10;" points="69.979,68.82 69.961,68.863 
			70.363,69.267 70.363,69.191 69.992,68.82 		"/>
		<polygon style="fill:none;stroke:#000000;stroke-width:0.5;stroke-miterlimit:10;" points="71.248,67.294 69.961,68.579 
			69.979,68.623 69.992,68.623 71.323,67.294 		"/>
	</g>
	<g>
		<path style="fill:#E3E3E3;" d="M112.826,44.513c-0.01-0.052-0.027-0.1-0.054-0.146c-2.563-6.391-6.425-12.377-11.593-17.545
			s-11.154-9.029-17.544-11.592c-0.046-0.027-0.095-0.045-0.148-0.057c-12.478-4.959-26.481-4.96-38.959-0.004
			c-0.063,0.01-0.121,0.031-0.175,0.065c-6.384,2.562-12.368,6.423-17.533,11.587c-5.164,5.165-9.024,11.146-11.587,17.533
			c-0.033,0.053-0.054,0.109-0.063,0.171c-4.952,12.468-4.957,26.458-0.009,38.929c0.009,0.078,0.036,0.149,0.081,0.213
			c2.562,6.379,6.42,12.354,11.579,17.512c5.161,5.16,11.137,9.02,17.515,11.582c0.063,0.041,0.133,0.068,0.208,0.077
			c12.47,4.948,26.46,4.946,38.928-0.005c0.063-0.01,0.121-0.033,0.175-0.066c6.387-2.562,12.369-6.423,17.533-11.588
			c5.164-5.164,9.025-11.146,11.588-17.532c0.031-0.052,0.053-0.108,0.062-0.169C117.787,70.998,117.787,56.992,112.826,44.513z
			 M115.59,63.522l-7.287,0.001h-3.431l7.46-17.616C114.445,51.577,115.533,57.544,115.59,63.522z M64.477,12.412
			c5.978,0.054,11.945,1.144,17.615,3.257l-17.615,7.458V12.412z M63.523,12.411l-0.002,10.716l-17.611-7.46
			C51.58,13.556,57.546,12.466,63.523,12.411z M15.668,45.909l7.46,17.614H12.411C12.467,57.546,13.556,51.579,15.668,45.909z
			 M12.411,64.478h10.713L15.667,82.09C13.556,76.419,12.467,70.454,12.411,64.478z M63.521,115.589
			c-5.978-0.055-11.942-1.145-17.613-3.256l17.613-7.46V115.589z M64.477,115.589v-10.716l17.614,7.46
			C76.42,114.444,70.455,115.534,64.477,115.589z M111.431,84.345c-2.448,5.733-5.979,11.109-10.598,15.814l-5.626-5.625
			l-0.674,0.675l5.625,5.624c-4.705,4.619-10.081,8.15-15.814,10.6l7.304-16.224h-1.049l-7.442,16.539l-18.972-8.036
			c-0.023-0.009-0.05-0.005-0.077-0.011c-0.036-0.008-0.069-0.017-0.107-0.017c-0.041,0-0.077,0.009-0.116,0.019
			c-0.023,0.006-0.049,0.001-0.071,0.011l-18.97,8.034l-7.442-16.539h-1.049l7.302,16.222c-5.734-2.449-11.11-5.979-15.814-10.598
			l5.624-5.624l-0.673-0.677l-5.625,5.625c-4.62-4.703-8.148-10.079-10.598-15.812l16.222,7.303v-1.047l-16.54-7.443l8.033-18.971
			c0.009-0.021,0.003-0.043,0.009-0.066c0.012-0.041,0.021-0.081,0.021-0.123c0-0.035-0.006-0.068-0.015-0.103
			c-0.008-0.026-0.002-0.054-0.014-0.08l-8.033-18.97l16.538-7.443v-1.046l-16.222,7.302c2.45-5.734,5.98-11.111,10.598-15.814
			l5.625,5.623l0.677-0.674l-5.625-5.626c4.704-4.618,10.08-8.146,15.814-10.599l-7.302,16.225h1.047l7.444-16.538l18.969,8.034
			c0.021,0.009,0.046,0.004,0.069,0.009c0.037,0.012,0.075,0.02,0.116,0.02s0.075-0.008,0.113-0.018
			c0.023-0.007,0.048-0.002,0.071-0.011l18.97-8.033l7.444,16.537h1.049l-7.306-16.225c5.733,2.45,11.111,5.98,15.816,10.6
			l-5.625,5.625l0.674,0.676l5.626-5.625c4.62,4.705,8.15,10.082,10.601,15.816l-16.229-7.306l0.002,1.048l16.537,7.444
			l-8.033,18.969c-0.009,0.026-0.005,0.052-0.011,0.077c-0.008,0.035-0.015,0.07-0.015,0.105c0,0.042,0.007,0.08,0.017,0.123
			c0.006,0.021,0.001,0.045,0.009,0.065l8.036,18.972l-16.54,7.443v1.047L111.431,84.345z M112.332,82.093l-7.46-17.616h5.439
			l5.278,0.001C115.533,70.456,114.445,76.423,112.332,82.093z"/>
	</g>
	<path style="fill:none;stroke:#000000;stroke-miterlimit:10;" d="M81.621,81.319c0,0.419-0.34,0.758-0.758,0.758H45.246
		c-0.418,0-0.758-0.339-0.758-0.758V56.521c0-0.419,0.339-0.758,0.758-0.758h35.617c0.418,0,0.758,0.339,0.758,0.758V81.319z"/>
	<polyline style="fill:none;stroke:#000000;stroke-miterlimit:10;" points="45.846,55.764 71.658,50.718 72.401,51.9 	"/>
	<polyline style="fill:none;stroke:#000000;stroke-miterlimit:10;" points="52.639,55.764 74.721,51.447 75.398,52.526 	"/>
	<polyline style="fill:none;stroke:#000000;stroke-miterlimit:10;" points="59.124,55.764 77.24,52.166 79.5,55.764 	"/>
	<polyline style="fill:none;stroke:#000000;stroke-miterlimit:10;" points="74.139,70.78 81.621,70.749 81.621,67.341 
		74.521,67.341 	"/>
</g>
</svg>
