<svg xmlns="http://www.w3.org/2000/svg" xmlns:xlink="http://www.w3.org/1999/xlink" width="3.842" height="11.06" viewBox="0 0 3.842 11.06">
  <defs>
    <clipPath id="clip-path">
      <rect width="3.842" height="11.06" fill="none"/>
    </clipPath>
  </defs>
  <g id="Component_1_1" data-name="Component 1 – 1" transform="translate(0 0)" clip-path="url(#clip-path)">
    <path id="Path_49" data-name="Path 49" d="M38.715,34.77H36.05v1.323h1.177v4.941H36.05v1.323h3.842V41.034H38.715Z" transform="translate(-36.05 -31.297)"/>
    <path id="Path_50" data-name="Path 50" d="M38.935,29.424a.871.871,0,0,0,.637-.263.861.861,0,0,0,.267-.637.851.851,0,0,0-.267-.637.88.88,0,0,0-.637-.258.856.856,0,0,0-.647.267.9.9,0,0,0,0,1.26A.861.861,0,0,0,38.935,29.424Z" transform="translate(-37.068 -27.629)"/>
  </g>
</svg>
