<svg xmlns="http://www.w3.org/2000/svg" xmlns:xlink="http://www.w3.org/1999/xlink" width="9.977" height="9.992" viewBox="0 0 9.977 9.992">
  <defs>
    <clipPath id="clip-path">
      <rect width="9.977" height="9.992" fill="none"/>
    </clipPath>
  </defs>
  <g id="noun_Search_875357" clip-path="url(#clip-path)">
    <path id="Path_2" data-name="Path 2" d="M30.842,30.127,28.98,28.282a4.5,4.5,0,0,0-.333-5.968,4.485,4.485,0,0,0-6.334,6.351A4.482,4.482,0,0,0,28.282,29l1.845,1.845a.479.479,0,0,0,.349.15.453.453,0,0,0,.349-.15A.518.518,0,0,0,30.842,30.127ZM28.98,25.489a3.419,3.419,0,0,1-1.031,2.461,3.516,3.516,0,0,1-2.461,1.031,3.419,3.419,0,0,1-2.461-1.031A3.516,3.516,0,0,1,22,25.489a3.419,3.419,0,0,1,1.031-2.461A3.487,3.487,0,0,1,25.489,22a3.419,3.419,0,0,1,2.461,1.031A3.487,3.487,0,0,1,28.98,25.489Z" transform="translate(-21 -21)"/>
  </g>
</svg>
