<svg xmlns="http://www.w3.org/2000/svg" xmlns:xlink="http://www.w3.org/1999/xlink" width="12" height="13" viewBox="0 0 12 13">
  <defs>
    <clipPath id="clip-path">
      <rect width="12" height="13" fill="none"/>
    </clipPath>
  </defs>
  <g id="noun_bin_1398295" clip-path="url(#clip-path)">
    <path id="Path_1" data-name="Path 1" d="M29.834,30.768V24.55a.431.431,0,1,1,.862,0v6.24a.433.433,0,0,1-.431.433A.453.453,0,0,1,29.834,30.768Zm-3.878.433a.433.433,0,0,0,.431-.433V24.55a.431.431,0,1,0-.862,0v6.24A.429.429,0,0,0,25.956,31.2ZM34.1,22.557a.433.433,0,0,1-.431.433h-.452l-.711,9.6a.445.445,0,0,1-.431.412h-7.95a.444.444,0,0,1-.431-.412l-.711-9.6h-.452a.433.433,0,0,1,0-.867h2.995v-1.69A.433.433,0,0,1,25.956,20h4.309a.433.433,0,0,1,.431.433v1.69h2.973A.433.433,0,0,1,34.1,22.557Zm-7.713-.433h3.447V20.867H26.387Zm5.968.867H23.867l.668,9.143h7.153ZM28.111,31.2a.433.433,0,0,0,.431-.433V24.55a.431.431,0,1,0-.862,0v6.24A.429.429,0,0,0,28.111,31.2Z" transform="translate(-22.1 -20)" fill="#707070"/>
  </g>
</svg>
